<svg xmlns="http://www.w3.org/2000/svg" xmlns:xlink="http://www.w3.org/1999/xlink" width="375.853" height="424.573" viewBox="0 0 375.853 424.573"><defs><linearGradient id="a" x1="0.5" x2="0.5" y2="1" gradientUnits="objectBoundingBox"><stop offset="0" stop-color="#260bf5"/><stop offset="1" stop-color="#00c4ff"/></linearGradient><linearGradient id="b" x1="0.5" x2="0.5" y2="1" gradientUnits="objectBoundingBox"><stop offset="0" stop-color="#b31eea"/><stop offset="0.867" stop-color="#c429b8"/><stop offset="1" stop-color="#8b008b"/></linearGradient><filter id="c" x="0" y="0" width="375.853" height="424.573" filterUnits="userSpaceOnUse"><feOffset dx="3" dy="5" input="SourceAlpha"/><feGaussianBlur stdDeviation="4.5" result="d"/><feFlood flood-opacity="0.161"/><feComposite operator="in" in2="d"/><feComposite in="SourceGraphic"/></filter></defs><g transform="translate(10.5 8.5)"><line x1="88.612" y1="30" transform="translate(15.888 261.5)" fill="none" stroke="#d5d5d5" stroke-width="5"/><line x1="47" transform="translate(60.5 346.5)" fill="none" stroke="#d5d5d5" stroke-width="5"/><path d="M-5.2,0H38" transform="translate(241.888 346.5)" fill="none" stroke="#d5d5d5" stroke-width="5"/><line y1="27" x2="92" transform="translate(241.888 261.5)" fill="none" stroke="#d5d5d5" stroke-width="5"/><path d="M144.448,35.726c1.01-7.339,4.633-14.075,11.009-20.253L130.99,1.08a63.28,63.28,0,0,1-26.506,6.464,73.641,73.641,0,0,1-25.957-3.07,79.025,79.025,0,0,1-26,3.07A68.758,68.758,0,0,1,27.3,1.675L2.769,16.063q9.053,9.4,10.054,19.663c.312,3.15-1.214,7.492-4.647,13.1A70.1,70.1,0,0,0,4.1,56.88,25.794,25.794,0,0,0,2.522,62.3q-.185,8.96,8.568,16.164,6.851,5.251,22.556,11.6c11.438,3.425,20.293,5.647,26.5,6.595l5.145,1.41c1.617.453,3.35.9,5.156,1.383,3.906,1.376,6.642,2.866,8.084,4.4,1.773-1.667,4.574-3.117,8.3-4.4q3.346-.844,6.635-1.769l3.884-1.021c1.326-.384,3.059-.828,5.167-1.319q3.912-.911,7.863-1.756a92.074,92.074,0,0,0,13.237-3.523q15.217-6.34,22.28-11.432c6.05-4.812,8.993-10.233,8.858-16.324-.36-2.73-2.325-7.094-5.893-13.041-3.394-5.8-4.894-10.293-4.4-13.538Z" transform="matrix(1, -0.017, 0.017, 1, 94.165, 272.78)" fill="url(#a)"/><path d="M.912,24.75H3.19C4.723,31.974,12.793,36,20.25,36s15.529-4.035,17.06-11.25h2.278a.844.844,0,0,0,.6-1.44L35.472,18.6a.844.844,0,0,0-1.193,0L29.565,23.31a.844.844,0,0,0,.6,1.44h2.471c-1.427,3.819-5.974,6.088-10.133,6.61V18h3.656A.844.844,0,0,0,27,17.156V14.344a.844.844,0,0,0-.844-.844H22.5v-.385a6.75,6.75,0,1,0-4.5,0V13.5H14.344a.844.844,0,0,0-.844.844v2.813a.844.844,0,0,0,.844.844H18V31.36c-4.144-.52-8.706-2.79-10.133-6.61h2.471a.844.844,0,0,0,.6-1.44L6.222,18.6a.844.844,0,0,0-1.193,0L.315,23.31A.844.844,0,0,0,.912,24.75ZM20.25,4.5A2.25,2.25,0,1,1,18,6.75,2.253,2.253,0,0,1,20.25,4.5Z" transform="translate(153.734 305.808)" fill="#fff"/><g transform="matrix(1, 0, 0, 1, -10.5, -8.5)" filter="url(#c)"><path d="M125.1,196.817c-12.035,0-21.8,11.132-21.8,24.848s9.768,24.848,21.8,24.848,21.8-11.132,21.8-24.848S137.134,196.817,125.1,196.817Zm104.656,0c-12.035,0-21.8,11.132-21.8,24.848s9.768,24.848,21.8,24.848,21.8-11.132,21.8-24.848S241.79,196.817,229.754,196.817ZM177.426,3C81.143,3,3,92.056,3,201.786S81.143,400.573,177.426,400.573s174.426-89.056,174.426-198.786S273.71,3,177.426,3Zm0,390.061c-36.23,0-82.1-16.7-112.35-48.325C31.28,309.4,15.182,248.161,15.182,201.786c0-5.765,28.6-8.774,29.123-14.34,41.165-20.873,68.234-61.994,85.328-109.5,31.571,50.889,83.55,84.087,142.332,84.087a150.421,150.421,0,0,0,39.246-5.168c3.663,14.114,32.581,29.222,32.581,44.926,0,49.969-25.431,112.13-64.806,148.136C249.526,376.865,210.5,393.061,177.426,393.061Z" transform="translate(7.5 5.5)" fill="url(#b)"/></g></g></svg>